<?xml version="1.0" encoding="UTF-8" standalone="no"?>
<svg
   viewBox="0 0 48 48"
   width="48"
   height="48"
   version="1.1"
   id="svg3"
   sodipodi:docname="amelia_logo.svg"
   inkscape:version="1.4 (e7c3feb100, 2024-10-09)"
   xmlns:inkscape="http://www.inkscape.org/namespaces/inkscape"
   xmlns:sodipodi="http://sodipodi.sourceforge.net/DTD/sodipodi-0.dtd"
   xmlns:xlink="http://www.w3.org/1999/xlink"
   xmlns="http://www.w3.org/2000/svg"
   xmlns:svg="http://www.w3.org/2000/svg">
  <sodipodi:namedview
     id="namedview3"
     pagecolor="#ffffff"
     bordercolor="#000000"
     borderopacity="0.25"
     inkscape:showpageshadow="2"
     inkscape:pageopacity="0.0"
     inkscape:pagecheckerboard="0"
     inkscape:deskcolor="#d1d1d1"
     inkscape:zoom="12.229167"
     inkscape:cx="24.040886"
     inkscape:cy="24"
     inkscape:window-width="1456"
     inkscape:window-height="795"
     inkscape:window-x="0"
     inkscape:window-y="0"
     inkscape:window-maximized="1"
     inkscape:current-layer="svg3" />
  <defs
     id="defs2">
    <linearGradient
       id="linearGradient4"
       inkscape:collect="always">
      <stop
         style="stop-color:#311f63;stop-opacity:1;"
         offset="0"
         id="stop4" />
      <stop
         style="stop-color:#624e9a;stop-opacity:1;"
         offset="1"
         id="stop5" />
    </linearGradient>
    <linearGradient
       id="amelia-grad"
       x1="0%"
       y1="0%"
       x2="100%"
       y2="100%">
      <stop
         offset="0%"
         stop-color="#311F63"
         id="stop1" />
      <stop
         offset="100%"
         stop-color="#624E9A"
         id="stop2" />
    </linearGradient>
    <linearGradient
       inkscape:collect="always"
       xlink:href="#linearGradient4"
       id="linearGradient5"
       x1="2"
       y1="24"
       x2="46"
       y2="24"
       gradientUnits="userSpaceOnUse" />
  </defs>
  <!-- Outer Glow / Background Accent -->
  <path
     d="M 24 2 C 24 16 34 14 38 10 C 30 18 34 22 46 24 C 34 26 30 30 38 38 C 34 34 24 32 24 46 C 24 32 14 34 10 38 C 18 30 14 26 2 24 C 14 22 18 18 10 10 C 14 14 24 16 24 2 Z"
     fill="url(#amelia-grad)"
     opacity="0.15"
     id="path2"
     style="fill:url(#linearGradient5);fill-opacity:1;opacity:1"
     transform="scale(1.1) translate(-2, -2)" />
  <!-- Foreground Star Shape -->
</svg>
