<svg width="48" height="48" viewBox="0 0 48 48" fill="none" xmlns="http://www.w3.org/2000/svg">
  <!-- Magnolia Flower: stylized geometric 5-petal design for M3 -->
  <g id="magnolia-m3-logo">
    <!-- Petal 1 (Top) -->
    <path d="M24 6C24 6 28 14 28 18C28 22 24 24 24 24C24 24 20 22 20 18C20 14 24 6 24 6Z" fill="currentColor"/>
    <!-- Petal 2 (Right Top) -->
    <path d="M41.1 18.5C41.1 18.5 33 20.2 29.2 23C25.4 25.8 24 24 24 24C24 24 27.2 21.2 31 18.4C34.8 15.6 41.1 18.5 41.1 18.5Z" fill="currentColor" fill-opacity="0.9"/>
    <!-- Petal 3 (Right Bottom) -->
    <path d="M34.6 38.6C34.6 38.6 28.5 33.7 27.2 29.1C25.9 24.5 24 24 24 24C24 24 27.8 26.6 29.1 31.2C30.4 35.8 34.6 38.6 34.6 38.6Z" fill="currentColor" fill-opacity="0.8"/>
    <!-- Petal 4 (Left Bottom) -->
    <path d="M13.4 38.6C13.4 38.6 17.6 35.8 18.9 31.2C20.2 26.6 24 24 24 24C24 24 22.1 24.5 20.8 29.1C19.5 33.7 13.4 38.6 13.4 38.6Z" fill="currentColor" fill-opacity="0.75"/>
    <!-- Petal 5 (Left Top) -->
    <path d="M6.9 18.5C6.9 18.5 13.2 15.6 17 18.4C20.8 21.2 24 24 24 24C24 24 22.6 25.8 18.8 23C15 20.2 6.9 18.5 6.9 18.5Z" fill="currentColor" fill-opacity="0.85"/>
    
    <!-- Central Pistil -->
    <circle cx="24" cy="24" r="3.5" fill="currentColor"/>
  </g>
</svg>
